<svg id="visual" viewBox="0 0 1900 400" width="1900" height="400" xmlns="http://www.w3.org/2000/svg" xmlns:xlink="http://www.w3.org/1999/xlink" version="1.1"><rect x="0" y="0" width="1900" height="400" fill="#001220"></rect><path d="M0 258L45.2 262.3C90.3 266.7 180.7 275.3 271.2 277.5C361.7 279.7 452.3 275.3 542.8 275C633.3 274.7 723.7 278.3 814.2 281.3C904.7 284.3 995.3 286.7 1085.8 279.2C1176.3 271.7 1266.7 254.3 1357.2 251.3C1447.7 248.3 1538.3 259.7 1628.8 261.7C1719.3 263.7 1809.7 256.3 1854.8 252.7L1900 249L1900 401L1854.8 401C1809.7 401 1719.3 401 1628.8 401C1538.3 401 1447.7 401 1357.2 401C1266.7 401 1176.3 401 1085.8 401C995.3 401 904.7 401 814.2 401C723.7 401 633.3 401 542.8 401C452.3 401 361.7 401 271.2 401C180.7 401 90.3 401 45.2 401L0 401Z" fill="#fa7268"></path><path d="M0 296L45.2 292.3C90.3 288.7 180.7 281.3 271.2 278.5C361.7 275.7 452.3 277.3 542.8 278.2C633.3 279 723.7 279 814.2 285.7C904.7 292.3 995.3 305.7 1085.8 306.8C1176.3 308 1266.7 297 1357.2 287.8C1447.7 278.7 1538.3 271.3 1628.8 275.5C1719.3 279.7 1809.7 295.3 1854.8 303.2L1900 311L1900 401L1854.8 401C1809.7 401 1719.3 401 1628.8 401C1538.3 401 1447.7 401 1357.2 401C1266.7 401 1176.3 401 1085.8 401C995.3 401 904.7 401 814.2 401C723.7 401 633.3 401 542.8 401C452.3 401 361.7 401 271.2 401C180.7 401 90.3 401 45.2 401L0 401Z" fill="#ef5f67"></path><path d="M0 295L45.2 299.3C90.3 303.7 180.7 312.3 271.2 319.7C361.7 327 452.3 333 542.8 332.8C633.3 332.7 723.7 326.3 814.2 325.3C904.7 324.3 995.3 328.7 1085.8 323.8C1176.3 319 1266.7 305 1357.2 301.2C1447.7 297.3 1538.3 303.7 1628.8 309C1719.3 314.3 1809.7 318.7 1854.8 320.8L1900 323L1900 401L1854.8 401C1809.7 401 1719.3 401 1628.8 401C1538.3 401 1447.7 401 1357.2 401C1266.7 401 1176.3 401 1085.8 401C995.3 401 904.7 401 814.2 401C723.7 401 633.3 401 542.8 401C452.3 401 361.7 401 271.2 401C180.7 401 90.3 401 45.2 401L0 401Z" fill="#e34c67"></path><path d="M0 321L45.2 323.5C90.3 326 180.7 331 271.2 335.2C361.7 339.3 452.3 342.7 542.8 343C633.3 343.3 723.7 340.7 814.2 342.5C904.7 344.3 995.3 350.7 1085.8 348.3C1176.3 346 1266.7 335 1357.2 330C1447.7 325 1538.3 326 1628.8 326C1719.3 326 1809.7 325 1854.8 324.5L1900 324L1900 401L1854.8 401C1809.7 401 1719.3 401 1628.8 401C1538.3 401 1447.7 401 1357.2 401C1266.7 401 1176.3 401 1085.8 401C995.3 401 904.7 401 814.2 401C723.7 401 633.3 401 542.8 401C452.3 401 361.7 401 271.2 401C180.7 401 90.3 401 45.2 401L0 401Z" fill="#d53867"></path><path d="M0 381L45.2 379.5C90.3 378 180.7 375 271.2 369.8C361.7 364.7 452.3 357.3 542.8 358C633.3 358.7 723.7 367.3 814.2 371.5C904.7 375.7 995.3 375.3 1085.8 374.5C1176.3 373.7 1266.7 372.3 1357.2 372.2C1447.7 372 1538.3 373 1628.8 374.7C1719.3 376.3 1809.7 378.7 1854.8 379.8L1900 381L1900 401L1854.8 401C1809.7 401 1719.3 401 1628.8 401C1538.3 401 1447.7 401 1357.2 401C1266.7 401 1176.3 401 1085.8 401C995.3 401 904.7 401 814.2 401C723.7 401 633.3 401 542.8 401C452.3 401 361.7 401 271.2 401C180.7 401 90.3 401 45.2 401L0 401Z" fill="#c62368"></path></svg>