<svg id="visual" viewBox="0 0 1500 200" width="1500" height="200" xmlns="http://www.w3.org/2000/svg" xmlns:xlink="http://www.w3.org/1999/xlink" version="1.1"><rect x="0" y="0" width="1500" height="200" fill="#001220"></rect><path d="M0 70L35.7 75.5C71.3 81 142.7 92 214.2 99.2C285.7 106.3 357.3 109.7 428.8 105.8C500.3 102 571.7 91 643 84.3C714.3 77.7 785.7 75.3 857 79.7C928.3 84 999.7 95 1071.2 97.3C1142.7 99.7 1214.3 93.3 1285.8 92C1357.3 90.7 1428.7 94.3 1464.3 96.2L1500 98L1500 201L1464.3 201C1428.7 201 1357.3 201 1285.8 201C1214.3 201 1142.7 201 1071.2 201C999.7 201 928.3 201 857 201C785.7 201 714.3 201 643 201C571.7 201 500.3 201 428.8 201C357.3 201 285.7 201 214.2 201C142.7 201 71.3 201 35.7 201L0 201Z" fill="#fa7268"></path><path d="M0 97L35.7 97.5C71.3 98 142.7 99 214.2 103.3C285.7 107.7 357.3 115.3 428.8 118.5C500.3 121.7 571.7 120.3 643 117.7C714.3 115 785.7 111 857 110.5C928.3 110 999.7 113 1071.2 116.3C1142.7 119.7 1214.3 123.3 1285.8 125.7C1357.3 128 1428.7 129 1464.3 129.5L1500 130L1500 201L1464.3 201C1428.7 201 1357.3 201 1285.8 201C1214.3 201 1142.7 201 1071.2 201C999.7 201 928.3 201 857 201C785.7 201 714.3 201 643 201C571.7 201 500.3 201 428.8 201C357.3 201 285.7 201 214.2 201C142.7 201 71.3 201 35.7 201L0 201Z" fill="#ef5f67"></path><path d="M0 124L35.7 125.2C71.3 126.3 142.7 128.7 214.2 133C285.7 137.3 357.3 143.7 428.8 143.8C500.3 144 571.7 138 643 134C714.3 130 785.7 128 857 125.7C928.3 123.3 999.7 120.7 1071.2 122.2C1142.7 123.7 1214.3 129.3 1285.8 130.5C1357.3 131.7 1428.7 128.3 1464.3 126.7L1500 125L1500 201L1464.3 201C1428.7 201 1357.3 201 1285.8 201C1214.3 201 1142.7 201 1071.2 201C999.7 201 928.3 201 857 201C785.7 201 714.3 201 643 201C571.7 201 500.3 201 428.8 201C357.3 201 285.7 201 214.2 201C142.7 201 71.3 201 35.7 201L0 201Z" fill="#e34c67"></path><path d="M0 155L35.7 153C71.3 151 142.7 147 214.2 149.3C285.7 151.7 357.3 160.3 428.8 160.7C500.3 161 571.7 153 643 150C714.3 147 785.7 149 857 150.8C928.3 152.7 999.7 154.3 1071.2 157.3C1142.7 160.3 1214.3 164.7 1285.8 161.5C1357.3 158.3 1428.7 147.7 1464.3 142.3L1500 137L1500 201L1464.3 201C1428.7 201 1357.3 201 1285.8 201C1214.3 201 1142.7 201 1071.2 201C999.7 201 928.3 201 857 201C785.7 201 714.3 201 643 201C571.7 201 500.3 201 428.8 201C357.3 201 285.7 201 214.2 201C142.7 201 71.3 201 35.7 201L0 201Z" fill="#d53867"></path><path d="M0 179L35.7 176.5C71.3 174 142.7 169 214.2 167.5C285.7 166 357.3 168 428.8 168.3C500.3 168.7 571.7 167.3 643 165.8C714.3 164.3 785.7 162.7 857 164.5C928.3 166.3 999.7 171.7 1071.2 173.7C1142.7 175.7 1214.3 174.3 1285.8 173.7C1357.3 173 1428.7 173 1464.3 173L1500 173L1500 201L1464.3 201C1428.7 201 1357.3 201 1285.8 201C1214.3 201 1142.7 201 1071.2 201C999.7 201 928.3 201 857 201C785.7 201 714.3 201 643 201C571.7 201 500.3 201 428.8 201C357.3 201 285.7 201 214.2 201C142.7 201 71.3 201 35.7 201L0 201Z" fill="#c62368"></path></svg>