<svg viewBox="0 0 800 600" height="600" width="800" xmlns="http://www.w3.org/2000/svg" version="1.1"><g transform-origin="center" transform="scale(1, 1) rotate(0)"><rect x="0" y="0" width="800" height="600" fill="#002438"></rect><linearGradient id="linear-gradient-r8"><stop offset="0%" stop-color="#89292aff" stop-opacity="100%"></stop><stop offset="100%" stop-color="#ff0092ff" stop-opacity="100%"></stop></linearGradient><filter id="shadow-r8" x="0" width="100%" y="-20%" height="150%"><feDropShadow dx="12" dy="-10" stdDeviation="4" flood-color="#c4bcbc61"></feDropShadow></filter><path d="M0 0 0,321.08258499065414 C 2.9090909090909096,321.0320980126038 66.90909090909092,319.1386236294173 72.72727272727273,319.8204105393961 C 78.54545454545455,320.50219744937493 139.63636363636365,338.2368844823912 145.45454545454547,338.12725774012506 C 151.27272727272728,338.01763099785893 212.36363636363637,318.5121444921009 218.1818181818182,317.07974198274314 C 224,315.6473394733854 285.0909090909091,304.7582475741394 290.90909090909093,302.31719500618055 C 296.72727272727275,299.87614243822173 357.81818181818187,257.3834529725835 363.6363636363637,256.05342778377235 C 369.4545454545455,254.72340259496121 430.54545454545456,268.3932782921009 436.3636363636364,269.06656528590247 C 442.1818181818182,269.73985227970405 503.2727272727273,271.6410939982161 509.0909090909091,272.8856026288122 C 514.909090909091,274.1301112594083 576,299.052991780825 581.8181818181819,300.179281050805 C 587.6363636363637,301.305570320785 648.7272727272727,301.8126623315737 654.5454545454546,301.0428343783133 C 660.3636363636365,300.27300642505287 721.4545454545455,280.7365340567194 727.2727272727274,280.9335822192952 C 733.0909090909092,281.130630381871 797.0909090909092,304.967620193772 800.0000000000001,305.96903844270855 L800 600 L0 600Z" fill="none" stroke-linecap="round" filter="url(#shadow-r8)" stroke-width="1" style="transition: all 0.4s cubic-bezier(0.16, 1, 0.3, 1) 0s; fill: url(&quot;#linear-gradient-r8&quot;);"></path><path d="M0 0 0,426.42721405252814 C 2.90909090909091,427.403579236567 66.90909090909092,450.9825126431882 72.72727272727273,450.8363436535001 C 78.54545454545455,450.69017466381194 139.63636363636365,424.6828593228012 145.45454545454547,422.7729893103242 C 151.27272727272728,420.86311929784716 212.36363636363637,406.34433009885254 218.1818181818182,403.0895933415741 C 224,399.8348565842956 285.0909090909091,343.17793729677794 290.90909090909093,341.40457037836313 C 296.72727272727275,339.6312034599483 357.81818181818187,357.8577043894678 363.6363636363637,358.7554203812033 C 369.4545454545455,359.6531363729388 430.54545454545456,362.1881253309548 436.3636363636364,363.8474701717496 C 442.1818181818182,365.5068150125444 503.2727272727273,398.7373223744333 509.0909090909091,400.23904140107334 C 514.909090909091,401.7407604277134 576,402.41688310876486 581.8181818181819,401.39044583775103 C 587.6363636363637,400.3640085667372 648.7272727272727,374.3153787422925 654.5454545454546,374.57810962572694 C 660.3636363636365,374.84084050916135 721.4545454545455,407.1916432201862 727.2727272727274,407.9587179236114 C 733.0909090909092,408.7257926270366 797.0909090909092,394.3231268398464 800.0000000000001,393.75497721135616 L800 600 L0 600Z" fill="none" stroke-linecap="round" filter="url(#shadow-r8)" stroke-width="1" style="transition: all 0.4s cubic-bezier(0.16, 1, 0.3, 1) 0s; fill: url(&quot;#linear-gradient-r8&quot;);"></path><path d="M0 0 0,563.5454295668751 C 2.9090909090909096,562.1422618497163 66.90909090909092,530.8535741535015 72.72727272727273,528.4662366379052 C 78.54545454545455,526.0788991223089 139.63636363636365,507.93041262356564 145.45454545454547,503.8619916769676 C 151.27272727272728,499.79357073036954 212.36363636363637,428.97242162097245 218.1818181818182,426.7557129729539 C 224,424.5390043249354 285.0909090909091,447.3221304868348 290.90909090909093,448.4442754765041 C 296.72727272727275,449.56642046617344 357.81818181818187,452.7351566636935 363.6363636363637,454.809337714687 C 369.4545454545455,456.8835187656805 430.54545454545456,498.4216529680416 436.3636363636364,500.29880175134167 C 442.1818181818182,502.17595053464174 503.2727272727273,503.0211038859561 509.0909090909091,501.7380572971888 C 514.909090909091,500.45501070842147 576,467.89422342786565 581.8181818181819,468.2226370321587 C 587.6363636363637,468.5510506364517 648.7272727272727,508.9895540252328 654.5454545454546,509.94839740451425 C 660.3636363636365,510.9072407837957 721.4545454545455,494.1646172562614 727.2727272727274,492.1937215141952 C 733.0909090909092,490.222825772129 797.0909090909092,461.9367125593126 800.0000000000001,460.67600385285914 L800 600 L0 600Z" fill="none" stroke-linecap="round" filter="url(#shadow-r8)" stroke-width="1" style="transition: all 0.4s cubic-bezier(0.16, 1, 0.3, 1) 0s; fill: url(&quot;#linear-gradient-r8&quot;);"></path></g></svg>