<svg viewBox="0 0 900 200" height="200" width="900" xmlns="http://www.w3.org/2000/svg" version="1.1"><g transform-origin="center" transform="scale(1, 1) rotate(0)"><rect x="0" y="0" width="900" height="200" fill="#002438"></rect><linearGradient id="linear-gradient-r8"><stop offset="0%" stop-color="#ff0005ff" stop-opacity="100%"></stop><stop offset="100%" stop-color="#ff0092ff" stop-opacity="100%"></stop></linearGradient><filter id="shadow-r8" x="0" width="100%" y="-20%" height="150%"><feDropShadow dx="0" dy="0" stdDeviation="10" flood-color="#00000061"></feDropShadow></filter><path d="M0 0 0,105.65219751512632 C 3.6,105.62471016041003 52.8,104.82287984108862 60,105.19407493652155 C 67.2,105.56527003195447 112.8,111.89846810979769 120,111.83878243900836 C 127.2,111.77909676821902 172.8,104.9791773451275 180,104.19931375669937 C 187.2,103.41945016827124 232.8,100.1700734744283 240,98.84105596520628 C 247.2,97.51203845598425 292.8,82.77314676135157 300,82.04902193633218 C 307.2,81.3248971113128 352.8,86.40574151825781 360,86.77230888154979 C 367.2,87.13887624484177 412.8,87.48091218120729 420,88.1584779911985 C 427.2,88.8360438011897 472.8,97.45187044552527 480,98.0650723814033 C 487.2,98.67827431728132 532.8,98.79763880816289 540,98.37851025583223 C 547.2,97.95938170350156 592.8,90.97231473182329 600,91.07959650922567 C 607.2,91.18687828662806 652.8,99.85331770864005 660,100.16653987920533 C 667.2,100.47976204977061 712.8,96.94379196105525 720,96.29996601864696 C 727.2,95.65614007623866 772.8,89.07657086063799 780,89.43610750573377 C 787.2,89.79564415082957 832.8,101.43119530700147 840,102.29224343691021 C 847.2,103.15329156681895 896.4,103.69722969684129 900,103.78690967087944 L900 200 L0 200Z" fill="none" stroke-linecap="round" stroke-width="1" style="transition: all 0.4s cubic-bezier(0.16, 1, 0.3, 1) 0s; fill: url(&quot;#linear-gradient-r8&quot;);" filter="url(#shadow-r8)"></path><path d="M0 0 0,159.9379302606297 C 3.6,160.54409031238717 52.8,170.13134437101894 60,170.04059778992087 C 67.2,169.9498512088228 112.8,159.6111982084081 120,158.42548724232861 C 127.2,157.23977627624913 172.8,152.29939742540628 180,150.2787483552626 C 187.2,148.2580992851189 232.8,125.84896803511617 240,124.74800273993363 C 247.2,123.64703744475108 292.8,131.37199475735113 300,131.9293267688869 C 307.2,132.4866587804227 352.8,133.00669301020292 360,134.03686959886303 C 367.2,135.06704618752315 412.8,148.16661935084966 420,149.0989365798887 C 427.2,150.03125380892772 472.8,150.21273655526807 480,149.57549008284695 C 487.2,148.93824361042584 532.8,138.3150499494048 540,138.47816203953698 C 547.2,138.64127412966917 592.8,151.81779937334048 600,152.2940249183836 C 607.2,152.77025046342672 652.8,147.39413267548196 660,146.4152544569224 C 667.2,145.43637623836287 712.8,135.43274549219447 720,135.97938794239113 C 727.2,136.52603039258778 772.8,154.21681735452265 780,155.52596196020022 C 787.2,156.8351065658778 832.8,158.49349969634167 840,157.79846470368406 C 847.2,157.10342971102645 896.4,144.77343057317347 900,143.94204541590685 L900 200 L0 200Z" fill="none" stroke-linecap="round" filter="url(#shadow-r8)" stroke-width="1" style="transition: all 0.4s cubic-bezier(0.16, 1, 0.3, 1) 0s; fill: url(&quot;#linear-gradient-r8&quot;);"></path><path d="M0 0 0,228.24241314083338 C 3.6000000000000005,227.30696799606085 52.8,214.24321907168874 60,212.65166072795787 C 67.2,211.060102384227 112.8,204.4287213763843 120,201.71644074531892 C 127.2,199.00416011425355 172.8,168.92478930888078 180,167.44698354353508 C 187.2,165.9691777781894 232.8,176.3382479964445 240,177.08634465622404 C 247.2,177.8344413160036 292.8,178.53247383919856 300,179.91526120652756 C 307.2,181.29804857385656 352.8,198.88136825617403 360,200.13280077837408 C 367.2,201.38423330057412 412.8,201.62783430237323 420,200.77246990986168 C 427.2,199.91710551735014 472.8,185.6577851669863 480,185.8767275698483 C 487.2,186.0956699727103 532.8,203.7822810380409 540,204.42150995756188 C 547.2,205.06073887708285 592.8,197.84447338990867 600,196.53054289519787 C 607.2,195.21661240048707 652.8,181.78892012375096 660,182.5226683790485 C 667.2,183.25641663434604 712.8,207.00243940204382 720,208.75968048349023 C 727.2,210.51692156493664 772.8,212.74295261253914 780,211.81001973648867 C 787.2,210.8770868604382 832.8,195.68522352321693 840,193.21079921598235 C 847.2,190.73637490874776 896.4,171.92808569191644 900,170.56961461591223 L900 200 L0 200Z" fill="none" stroke-linecap="round" filter="url(#shadow-r8)" stroke-width="1" style="transition: all 0.4s cubic-bezier(0.16, 1, 0.3, 1) 0s; fill: url(&quot;#linear-gradient-r8&quot;);"></path><path d="M0 0 0,266.87783421358716 C 3.6,266.05441214889447 52.8,256.55804532736227 60,253.15413313537525 C 67.2,249.7502209433882 112.8,212.00061058264538 120,210.14596434713653 C 127.2,208.29131811162767 172.8,221.30450123553786 180,222.24336254356118 C 187.2,223.1822238515845 232.8,224.0582546681942 240,225.7936528141921 C 247.2,227.52905096018998 292.8,249.5961171614984 300,251.16666497685947 C 307.2,252.73721279222053 352.8,253.0429320494784 360,251.9694497368764 C 367.2,250.89596742427443 412.8,233.00052038456778 420,233.27529310015962 C 427.2,233.55006581575145 472.8,255.74676270274136 480,256.5489949967402 C 487.2,257.351227290739 532.8,248.2948141043354 540,246.64583133347332 C 547.2,244.99684856261126 592.8,228.14509475530744 600,229.06594881570587 C 607.2,229.9868028761043 652.8,259.788061449565 660,261.99339900678024 C 667.2,264.19873656399545 712.8,266.9924055287366 720,265.82157476929325 C 727.2,264.6507440098499 772.8,245.58495552163726 780,242.47955301605785 C 787.2,239.37415051047844 832.8,212.28553399942038 840,214.06486634296985 C 847.2,215.84419868651932 896.4,268.6508785312809 900,272.13509207521565 L900 200 L0 200Z" fill="none" stroke-linecap="round" filter="url(#shadow-r8)" stroke-width="1" style="transition: all 0.4s cubic-bezier(0.16, 1, 0.3, 1) 0s; fill: url(&quot;#linear-gradient-r8&quot;);"></path><path d="M0 0 0,304.5918255254316 C 3.599999999999999,301.48701270295 52.800000000000004,255.07643185640998 60,252.84494515073797 C 67.2,250.613458445066 112.8,266.27075447463125 120,267.40038043089834 C 127.2,268.53000638716543 172.8,269.5840354971898 180,271.6720444218566 C 187.2,273.76005334652336 232.8,300.31086606682277 240,302.20052917534485 C 247.2,304.09019228386694 292.8,304.45802979658356 300,303.16642956389114 C 307.2,301.8748293311987 352.8,280.34325560214927 360,280.67385863047093 C 367.2,281.0044616587926 412.8,307.7112443674418 420,308.6764800359185 C 427.2,309.64171570439515 472.8,298.7451548187621 480,296.7611197717488 C 487.2,294.77708472473546 532.8,274.50126938686395 540,275.60922925236326 C 547.2,276.7171891178626 592.8,312.57368349708617 600,315.22711753007025 C 607.2,317.8805515630543 652.8,321.24185844493405 660,319.83312980209786 C 667.2,318.42440115926166 712.8,295.4846875200576 720,291.7483068161334 C 727.2,288.01192611220915 772.8,255.4192480789839 780,257.5601180700275 C 787.2,259.7009880610711 832.8,325.17204143943263 840,327.4294733335264 C 847.2,329.6869052276202 896.4,297.11871239330617 900,295.18398297159 L900 200 L0 200Z" fill="none" stroke-linecap="round" filter="url(#shadow-r8)" stroke-width="1" style="transition: all 0.4s cubic-bezier(0.16, 1, 0.3, 1) 0s; fill: url(&quot;#linear-gradient-r8&quot;);"></path><path d="M0 0 0,295.5439259543394 C 3.5999999999999996,296.5647342961731 52.8,311.23700771372455 60,312.55739831823547 C 67.2,313.8777889227464 112.8,315.1098163261854 120,317.5504360295211 C 127.2,319.9910557328568 172.8,351.02561497214714 180,353.23439337383024 C 187.2,355.44317177551335 232.8,355.8731275436887 240,354.3634093909059 C 247.2,352.853691238123 292.8,327.6859908197308 300,328.07242416078225 C 307.2,328.4588575018337 352.8,359.6757260321422 360,360.80396507509676 C 367.2,361.9322041180513 412.8,349.1954955331888 420,346.87640821002424 C 427.2,344.55732088685966 472.8,320.8574440184205 480,322.15250968902063 C 487.2,323.44757535962077 532.8,365.35930554460737 540,368.46083605336025 C 547.2,371.56236656211314 592.8,375.4913113611315 600,373.84468483490247 C 607.2,372.1980583086734 652.8,345.3844195184779 660,341.0170606162089 C 667.2,336.64970171393986 712.8,298.5529621585474 720,301.0553697970851 C 727.2,303.5577774356228 772.8,380.08520075536336 780,382.72385459183715 C 787.2,385.362508428311 832.8,345.95597458720675 840,345.0329337383155 C 847.2,344.1098928894242 896.4,366.0014260413296 900,367.3398404436496 L900 200 L0 200Z" fill="none" stroke-linecap="round" filter="url(#shadow-r8)" stroke-width="1" style="transition: all 0.4s cubic-bezier(0.16, 1, 0.3, 1) 0s; fill: url(&quot;#linear-gradient-r8&quot;);"></path><path d="M0 0 0,357.7144162055726 C 3.5999999999999996,358.05728089146936 52.800000000000004,360.6355971551811 60,363.42882763718563 C 67.2,366.2220581191902 112.8,401.7403638774715 120,404.26825757231563 C 127.2,406.79615126715976 172.8,407.28822529079395 180,405.5603892179206 C 187.2,403.83255314504726 232.8,375.0287260373123 240,375.47098969109356 C 247.2,375.9132533448748 292.8,411.64020769684265 300,412.93145011427504 C 307.2,414.2226925317074 352.8,399.64583624761553 360,396.9916966482997 C 367.2,394.33755704898385 412.8,367.213618649977 420,368.695790125678 C 427.2,370.177961601379 472.8,418.1449275921285 480,421.69455457665026 C 487.2,425.244181561172 532.8,429.74076427732905 540,427.8562398677071 C 547.2,425.9717154580851 592.8,395.28415151689825 600,390.2858144162844 C 607.2,385.2874773156705 652.8,341.6866762381109 660,344.55062152414274 C 667.2,347.41456681017456 712.8,434.99836007129403 720,438.0182358501479 C 727.2,441.0381116290018 772.8,395.9382825304009 780,394.88188450504094 C 787.2,393.825486479681 832.8,423.15531603082394 840,420.4116020941486 C 847.2,417.6678881574732 896.4,353.42881588580707 900,349.1533188937853 L900 200 L0 200Z" fill="none" stroke-linecap="round" filter="url(#shadow-r8)" stroke-width="1" style="transition: all 0.4s cubic-bezier(0.16, 1, 0.3, 1) 0s; fill: url(&quot;#linear-gradient-r8&quot;);"></path><path d="M0 0 0,409.30721924485016 C 3.5999999999999996,412.0669133964072 52.8,452.45511278279594 60,455.302121770801 C 67.2,458.1491307588061 112.8,458.7033230378991 120,456.75736904493533 C 127.2,454.81141505197155 172.8,422.3714612548938 180,422.8695552214049 C 187.2,423.36764918791596 232.8,463.6046893615431 240,465.0589351534533 C 247.2,466.51318094536356 292.8,450.09617696204225 300,447.10698508657515 C 307.2,444.11779321110805 352.8,413.56979328153346 360,415.23907056233537 C 367.2,416.9083478431373 412.8,470.9305496396497 420,474.92827309994027 C 427.2,478.92599656023083 472.8,483.9902171935265 480,481.8677949005117 C 487.2,479.74537260749685 532.8,445.18388351531854 540,439.5545682163599 C 547.2,433.9252529174012 592.8,384.8203903176744 600,388.04587325120036 C 607.2,391.2713561847263 652.8,489.9115193872247 660,493.31261710845865 C 667.2,496.7137148296926 712.8,445.9205904735951 720,444.7308352717664 C 727.2,443.5410800699377 772.8,476.5734376089725 780,473.48336374464753 C 787.2,470.3932898803226 832.8,395.8672225997473 840,393.22960419968393 C 847.2,390.59198579962055 896.4,427.3454499042903 900,429.5230570769248 L900 200 L0 200Z" fill="none" stroke-linecap="round" filter="url(#shadow-r8)" stroke-width="1" style="transition: all 0.4s cubic-bezier(0.16, 1, 0.3, 1) 0s; fill: url(&quot;#linear-gradient-r8&quot;);"></path><path d="M0 0 0,506.3359859692864 C 3.6,506.4330877434462 52.8,510.1184207850043 60,507.95434887195006 C 67.2,505.79027695889584 112.8,469.7141964724753 120,470.2681207517162 C 127.2,470.8220450309571 172.8,515.5691710262435 180,517.1864201926315 C 187.2,518.8036693590196 232.8,500.54651767646897 240,497.2222735248506 C 247.2,493.8980293732323 292.8,459.92596791308995 300,461.78235099899274 C 307.2,463.63873408489553 352.8,523.7161716871709 360,528.1619916232303 C 367.2,532.6078115592896 412.8,538.239670109724 420,535.8793499333163 C 427.2,533.5190297569087 472.8,495.0836155137389 480,488.8233220164354 C 487.2,482.5630285191319 532.8,427.9541043972379 540,431.541124978258 C 547.2,435.12814555927804 592.8,544.8246787031553 600,548.6069983667694 C 607.2,552.3893180303835 652.8,495.90289841678924 660,494.5797860384919 C 667.2,493.2566736601945 712.8,529.9915591871211 720,526.5551253951465 C 727.2,523.118691603172 772.8,440.2391530449937 780,437.30588950558257 C 787.2,434.3726259661714 832.8,472.55462579136093 840,477.66739973829436 C 847.2,482.7801736852278 896.4,519.8277052881693 900,522.5187886211401 L900 200 L0 200Z" fill="none" stroke-linecap="round" filter="url(#shadow-r8)" stroke-width="1" style="transition: all 0.4s cubic-bezier(0.16, 1, 0.3, 1) 0s; fill: url(&quot;#linear-gradient-r8&quot;);"></path><path d="M0 0 0,559.1513286989648 C 3.6,556.6622501539485 52.8,517.0569316900568 60,517.6666862820275 C 67.2,518.2764408739982 112.8,567.5336526909439 120,569.3139052318098 C 127.2,571.0941577726758 172.8,550.9968583908957 180,547.3375619631261 C 187.2,543.6782655353564 232.8,506.28214254464643 240,508.3256314356501 C 247.2,510.3691203266538 292.8,576.501793734692 300,581.3957101465203 C 307.2,586.2896265583486 352.8,592.4891230259216 360,589.890904966121 C 367.2,587.2926869063203 412.8,544.9833475121592 420,538.0920758165108 C 427.2,531.2008041208625 472.8,471.08781847680143 480,475.0363767053156 C 487.2,478.9849349338298 532.8,599.7378380190861 540,603.9013796250802 C 547.2,608.0649212310742 592.8,545.8852063599834 600,544.4287368052173 C 607.2,542.9722672504513 652.8,583.4096807652696 660,579.6268870456455 C 667.2,575.8440933260214 712.8,484.6110834902401 720,481.3821748114812 C 727.2,478.1532661327223 772.8,520.183649339502 780,525.811742399664 C 787.2,531.439835459826 832.8,573.1845585975083 840,575.1837258141799 C 847.2,577.1828930308515 896.4,560.0943477990571 900,559.1311960108578 L900 200 L0 200Z" fill="none" stroke-linecap="round" filter="url(#shadow-r8)" stroke-width="1" style="transition: all 0.4s cubic-bezier(0.16, 1, 0.3, 1) 0s; fill: url(&quot;#linear-gradient-r8&quot;);"></path></g></svg>